<?xml version="1.0" standalone="no"?>
<!DOCTYPE svg PUBLIC "-//W3C//DTD SVG 20010904//EN"
 "http://www.w3.org/TR/2001/REC-SVG-20010904/DTD/svg10.dtd">
<svg version="1.0" xmlns="http://www.w3.org/2000/svg"
 width="1000.000000pt" height="1000.000000pt" viewBox="0 0 1000.000000 1000.000000"
 preserveAspectRatio="xMidYMid meet">
<metadata>
Created by potrace 1.11, written by Peter Selinger 2001-2013
</metadata>
<g transform="translate(0.000000,1000.000000) scale(0.100000,-0.100000)"
fill="#000000" stroke="none">
<path d="M4750 9994 c-845 -51 -1623 -289 -2335 -717 -55 -33 -126 -77 -157
-99 -31 -21 -60 -38 -63 -38 -24 0 -384 -278 -527 -407 -103 -93 -388 -391
-489 -511 -655 -782 -1054 -1728 -1154 -2741 -20 -209 -20 -753 0 -962 100
-1012 499 -1959 1153 -2740 102 -122 411 -444 505 -528 320 -283 795 -591
1205 -780 522 -242 1049 -386 1637 -447 236 -25 714 -25 950 0 1068 111 2010
518 2811 1211 144 125 416 401 533 540 592 709 966 1525 1115 2430 46 281 60
466 60 795 0 329 -14 514 -60 795 -149 905 -523 1721 -1115 2430 -117 139
-389 415 -533 540 -799 692 -1754 1104 -2806 1210 -150 15 -597 27 -730 19z
m865 -1780 c434 -47 802 -189 1087 -421 221 -180 383 -461 434 -757 25 -143
15 -376 -24 -526 -89 -345 -299 -681 -578 -923 -52 -45 -94 -84 -94 -87 0 -3
18 -15 39 -27 59 -34 158 -129 203 -196 102 -151 148 -310 155 -542 9 -277
-21 -477 -143 -953 -182 -710 -219 -871 -233 -1026 -20 -209 33 -368 155 -461
22 -17 121 -62 219 -100 192 -73 191 -73 184 -79 -10 -10 -527 -149 -656 -176
-313 -66 -617 -78 -798 -31 -248 65 -397 217 -441 451 -21 110 -14 340 15 494
25 131 104 454 161 661 148 532 175 646 205 846 35 235 29 396 -19 504 -33 74
-69 110 -144 147 -65 32 -70 33 -189 32 -68 0 -126 -4 -129 -7 -5 -5 -610
-2836 -640 -2994 l-6 -33 -699 0 c-437 0 -699 4 -699 10 0 10 139 662 730
3430 79 366 200 932 269 1259 87 404 132 597 142 602 14 8 1420 202 1425 197
1 -2 -85 -415 -192 -918 -107 -503 -194 -920 -194 -927 0 -17 122 13 208 53
353 161 640 607 693 1072 30 268 -34 485 -191 642 -161 162 -376 211 -780 181
-726 -55 -1262 -349 -1559 -856 -162 -277 -231 -561 -231 -955 0 -220 8 -274
63 -400 36 -84 41 -104 41 -175 l1 -80 -155 2 c-514 5 -813 197 -911 585 -30
118 -38 388 -15 521 63 371 251 694 599 1034 346 336 749 582 1243 758 481
172 932 224 1449 169z"/>
</g>
</svg>
